<?xml version="1.0" encoding="utf-8"?>
<!-- Generator: Adobe Illustrator 27.9.5, SVG Export Plug-In . SVG Version: 9.03 Build 54986)  -->
<svg version="1.1" id="Calque_1" xmlns="http://www.w3.org/2000/svg" xmlns:xlink="http://www.w3.org/1999/xlink" x="0px" y="0px"
	 viewBox="0 0 358.8 653.6" style="enable-background:new 0 0 358.8 653.6;" xml:space="preserve">
<style type="text/css">
	.st0{opacity:0.55;}
	.st1{fill:#C9A611;}
	.st2{fill:#DDB717;}
</style>
<g class="st0">
	<path class="st1" d="M121.9,465.3c-13.1,3.5-26.3,9.2-35.9,19.1c-10,10.4-14.1,24-15.9,38c-1.8,14.5-1.2,29.3-4,43.8
		c-2.5,12.9-8,24.8-15.6,35.4C37.4,619.6,19,633.2,0,644.9v8.8c15.1-9.1,29.7-19.2,42.3-31.5c9.3-9.1,17.6-19.5,23.3-31.3
		c6.2-12.6,8.8-26,9.8-39.9c1.1-14.2,0.8-28.8,5-42.5c4.4-14.1,14.3-24.1,27.5-30.4c9.2-4.4,19.1-6.8,29.1-8.7
		c2.6-2.9,5.1-5.9,7.6-8.8C137,461.9,129.4,463.2,121.9,465.3z"/>
	<g>
		<path class="st2" d="M321.7,0c-1.6,52.9-4.8,105.8-15.9,157.4C282.4,265.8,224.7,364.3,154,449.6C107.1,506.2,54.5,557.5,0,606.9
			v19.8c25.8-23.4,53.5-45.4,79.1-69c48.8-44.9,91-96.5,133-147.9c14.4-17.7,28.9-35.4,41.7-54.3c39-57.3,62.1-124.2,75.7-192.1
			C340.4,109.6,345.5,54.8,349.4,0H321.7z"/>
	</g>
	<path class="st1" d="M285.5,200.8c3.3-1.7,6.7-3,10.2-4.1c0.8-2.8,1.7-5.7,2.5-8.5c-29.3,7.1-48.9,32.1-57.5,60
		c-10.2,33.2-6.7,68.3-8.2,102.5c-1.3,29.4-7.1,60.9-27.5,83.4c-8,8.9-17.7,15-28.6,19.1c-2.9,3.5-5.8,6.9-8.8,10.4
		c9.8-2.4,19.2-5.7,27.9-11.5c23.1-15.3,35.8-42.2,40.9-68.7c6.7-34.6,2-70.1,5.8-105C245.6,248.3,257.2,215.9,285.5,200.8z"/>
	<path class="st1" d="M289.2,0h-7.5c0.2,5,1.2,10.1,2.7,14.9c4.7,14.6,14.6,26.2,25.1,37.1c10.9,11.3,22,22.2,29.9,36
		c7.7,13.4,12.5,28.7,11.9,44.3c-0.5,13.2-5.4,26.6-14,36.7c-3.2,3.8-6.9,7.2-11.1,9.9c-0.7,3.3-1.5,6.5-2.3,9.8
		c1.6-0.7,3.1-1.5,4.6-2.4c11.5-6.9,20-17.9,25-30.1c11.7-28.2,2.2-60.1-15.4-83.6C321.2,49.8,290.6,31,289.2,0z"/>
</g>
</svg>
