<?xml version="1.0" encoding="utf-8"?>
<!-- Generator: Adobe Illustrator 27.9.5, SVG Export Plug-In . SVG Version: 9.03 Build 54986)  -->
<svg version="1.1" id="Calque_1" xmlns="http://www.w3.org/2000/svg" xmlns:xlink="http://www.w3.org/1999/xlink" x="0px" y="0px"
	 viewBox="0 0 434.3 282.6" style="enable-background:new 0 0 434.3 282.6;" xml:space="preserve">
<style type="text/css">
	.st0{opacity:0.55;}
	.st1{fill:#DDB717;}
	.st2{fill:#C9A611;}
</style>
<g class="st0">
	<g>
		<path class="st1" d="M125.6,115.3C84.6,83.5,47.6,45.1,22.5,0H0c24.3,54.4,65,101.1,111.6,138.6
			c90.7,73.1,206.3,114.4,322.7,116.2v-23.1C322.9,224.6,213.8,183.7,125.6,115.3z"/>
	</g>
	<path class="st2" d="M434.3,203.8c-12,3.1-23.3,11.1-31.3,19.7c-15.1,16.3-26.4,38.3-48.2,46.9c-21.3,8.4-46.2,4.8-67.4-2.3
		c-20-6.6-38.5-17.7-54.1-31.9c-15.5-14.2-28.2-31.6-36.3-51.1c-8-19.1-12.9-40.1-25.9-56.7c-6.5-8.4-15.2-14.7-25.3-18.1
		c-9.9-3.4-20.5-3.8-30.9-3.4c3.1,2.5,6.1,5,9.2,7.4c11.1,0.4,21.8,2.6,31.2,9.2c16.8,11.8,23.1,33.5,29.8,51.8
		c3.7,10,7.7,19.8,13,29.1c5.3,9.3,11.7,18,18.9,26c14.4,16.1,32.1,29.3,51.7,38.4c20.4,9.4,43.7,15.4,66.3,13.6
		c12.1-0.9,24-4.3,34.1-11.1c9.5-6.4,16.9-15.1,24-24c7.1-9,14-18.5,23-25.6c5.3-4.2,11.5-7.9,18.1-9.9V203.8z"/>
	<path class="st2" d="M47.2,100.8C30.6,90.7,20.4,70.9,21.8,51.6c0.8-10.9,5.7-21.1,10.2-30.9c3-6.7,6.2-13.5,8.2-20.6h-7.8
		c-0.7,2.1-1.4,4.2-2.2,6.2c-4.2,10.6-9.8,20.7-13.1,31.7C10.6,58.3,16,80.3,30.1,96.2c6.8,7.7,15.6,13.5,25.4,16.6
		c9.7,3,19.9,3.6,30,3.3c-2.6-2.4-5.2-4.9-7.7-7.4C67.1,108.4,56.6,106.5,47.2,100.8z"/>
</g>
</svg>
