<?xml version="1.0" encoding="utf-8"?>
<!-- Generator: Adobe Illustrator 27.9.5, SVG Export Plug-In . SVG Version: 9.03 Build 54986)  -->
<svg version="1.1" id="Calque_1" xmlns="http://www.w3.org/2000/svg" xmlns:xlink="http://www.w3.org/1999/xlink" x="0px" y="0px"
	 viewBox="0 0 850 383.3" style="enable-background:new 0 0 850 383.3;" xml:space="preserve">
<style type="text/css">
	.st0{fill:#FFEEA6;}
</style>
<g>
	<path class="st0" d="M143.7,203.6v113.7L0,329.3V65.9l143.7-12v113.7l-18,18L143.7,203.6z M83.8,118.9l-23.9,1.9v41.9l23.9-1.9
		V118.9z M59.9,264.4l23.9-1.9v-41.9l-23.9,1.9V264.4z"/>
	<path class="st0" d="M299.3,264.4l23.9-1.9V59l59.9-5v263.4l-143.7,12v-6.9l-83.8,6.9V65.9l59.9-5v203.5l23.9-1.9V59l59.9-5V264.4z
		"/>
	<path class="st0" d="M395.1,65.9l143.7-12v263.4l-143.7,12V65.9z M478.9,118.9l-23.9,1.9v143.7l23.9-1.9V118.9z"/>
	<path class="st0" d="M625.6,119.6l-74.9,6.2V65.9l143.7-12v59.9l-71.8,149.6l71.8-6v59.9l-143.7,12v-59.9L625.6,119.6z"/>
	<path class="st0" d="M706.3,65.9L850,54v263.4l-143.7,12V65.9z M790.1,118.9l-23.9,1.9v143.7l23.9-1.9V118.9z"/>
</g>
</svg>
